# MagicaVoxel @ Ephtracy

# group
o 

# material
mtllib EBullet.mtl
usemtl palette

# normals
vn -1 0 0
vn 1 0 0
vn 0 0 1
vn 0 0 -1
vn 0 -1 0
vn 0 1 0

# texcoords
vt 0.0917969 0.5
vt 0.306641 0.5
vt 0.841797 0.5

# verts
v -0.5 0 0.5
v -0.5 0 0.3
v -0.5 0 -0.2
v -0.5 0 -0.5
v -0.5 0.1 0
v -0.5 0.1 -0.2
v -0.5 0.2 -0.3
v -0.5 0.2 -0.5
v -0.5 0.3 0.3
v -0.5 0.3 0
v -0.5 0.5 -0.3
v -0.5 0.5 -0.4
v -0.5 0.7 0.5
v -0.5 0.7 0.3
v -0.5 0.7 0.2
v -0.5 0.7 0
v -0.5 0.8 0.2
v -0.5 0.8 0
v -0.5 0.8 -0.3
v -0.5 0.8 -0.4
v -0.5 0.8 -0.5
v -0.5 0.9 -0.3
v -0.5 0.9 -0.4
v -0.5 1 0.5
v -0.5 1 0.3
v -0.5 1 -0.5
v 0.5 0 0.5
v 0.5 0 0.3
v 0.5 0 -0.1
v 0.5 0 -0.5
v 0.5 0.1 0.3
v 0.5 0.1 0.1
v 0.5 0.2 -0.1
v 0.5 0.2 -0.4
v 0.5 0.3 -0.3
v 0.5 0.3 -0.4
v 0.5 0.4 0.3
v 0.5 0.4 0.1
v 0.5 0.4 -0.3
v 0.5 0.4 -0.4
v 0.5 0.5 0.3
v 0.5 0.5 0.1
v 0.5 0.5 -0.4
v 0.5 0.5 -0.5
v 0.5 0.6 0.1
v 0.5 0.6 -0.3
v 0.5 0.7 0.2
v 0.5 0.7 -0.1
v 0.5 0.7 -0.3
v 0.5 0.7 -0.5
v 0.5 0.8 0.5
v 0.5 0.8 0.3
v 0.5 1 0.5
v 0.5 1 0.3
v 0.5 1 0.2
v 0.5 1 -0.1
v 0.5 1 -0.5
v -0.5 0 0.5
v -0.5 0.7 0.5
v -0.5 1 0.5
v -0.4 0.4 0.5
v -0.4 0.5 0.5
v -0.3 0.4 0.5
v -0.3 0.5 0.5
v -0.3 0.6 0.5
v -0.3 0.7 0.5
v -0.3 1 0.5
v -0.2 0 0.5
v -0.2 0.1 0.5
v -0.2 0.6 0.5
v -0.2 1 0.5
v -0.1 0.1 0.5
v -0.1 0.2 0.5
v -0.1 0.5 0.5
v -0.1 0.6 0.5
v 0 0.2 0.5
v 0 0.4 0.5
v 0.1 0 0.5
v 0.1 0.1 0.5
v 0.1 0.9 0.5
v 0.1 1 0.5
v 0.2 0.6 0.5
v 0.2 0.9 0.5
v 0.3 0.1 0.5
v 0.3 0.4 0.5
v 0.3 0.8 0.5
v 0.3 1 0.5
v 0.5 0 0.5
v 0.5 0.8 0.5
v 0.5 1 0.5
v -0.5 0 -0.5
v -0.5 0.2 -0.5
v -0.5 0.8 -0.5
v -0.5 1 -0.5
v -0.4 0.6 -0.5
v -0.4 0.8 -0.5
v -0.3 0.6 -0.5
v -0.3 0.8 -0.5
v -0.2 0.2 -0.5
v -0.2 0.5 -0.5
v 0 0 -0.5
v 0 0.2 -0.5
v 0 0.5 -0.5
v 0 0.8 -0.5
v 0.1 0.7 -0.5
v 0.1 1 -0.5
v 0.2 0 -0.5
v 0.2 0.2 -0.5
v 0.3 0.5 -0.5
v 0.3 0.7 -0.5
v 0.3 1 -0.5
v 0.5 0 -0.5
v 0.5 0.5 -0.5
v 0.5 0.7 -0.5
v 0.5 1 -0.5
v -0.5 0 0.5
v -0.2 0 0.5
v 0.1 0 0.5
v 0.5 0 0.5
v -0.5 0 0.3
v -0.3 0 0.3
v -0.2 0 0.3
v 0 0 0.3
v 0.1 0 0.3
v 0.5 0 0.3
v 0 0 0.2
v 0.1 0 0.2
v 0 0 -0.1
v 0.1 0 -0.1
v 0.3 0 -0.1
v 0.5 0 -0.1
v -0.5 0 -0.2
v -0.3 0 -0.2
v 0.2 0 -0.3
v 0.3 0 -0.3
v -0.5 0 -0.5
v 0 0 -0.5
v 0.2 0 -0.5
v 0.5 0 -0.5
v -0.5 1 0.5
v -0.3 1 0.5
v -0.2 1 0.5
v 0.1 1 0.5
v 0.3 1 0.5
v 0.5 1 0.5
v -0.4 1 0.4
v -0.3 1 0.4
v -0.2 1 0.4
v -0.1 1 0.4
v 0 1 0.4
v 0.1 1 0.4
v -0.5 1 0.3
v -0.4 1 0.3
v -0.3 1 0.3
v -0.1 1 0.3
v 0.3 1 0.3
v 0.5 1 0.3
v 0.4 1 0.2
v 0.5 1 0.2
v 0.3 1 0.1
v 0.4 1 0.1
v -0.3 1 0
v 0 1 0
v 0.3 1 0
v 0.4 1 0
v -0.3 1 -0.1
v -0.2 1 -0.1
v 0.1 1 -0.1
v 0.4 1 -0.1
v 0.5 1 -0.1
v 0.3 1 -0.2
v 0.4 1 -0.2
v -0.3 1 -0.3
v -0.2 1 -0.3
v 0 1 -0.3
v 0.1 1 -0.3
v 0 1 -0.4
v 0.1 1 -0.4
v -0.5 1 -0.5
v 0.1 1 -0.5
v 0.3 1 -0.5
v 0.5 1 -0.5

# faces
f 5/1/1 3/1/1 2/1/1
f 6/3/1 4/3/1 3/3/1
f 6/1/1 3/1/1 5/1/1
f 7/3/1 6/3/1 5/3/1
f 7/3/1 4/3/1 6/3/1
f 8/3/1 4/3/1 7/3/1
f 9/3/1 2/3/1 1/3/1
f 9/1/1 5/1/1 2/1/1
f 10/3/1 7/3/1 5/3/1
f 10/1/1 5/1/1 9/1/1
f 11/1/1 8/1/1 7/1/1
f 11/3/1 7/3/1 10/3/1
f 11/3/1 10/3/1 9/3/1
f 12/1/1 8/1/1 11/1/1
f 13/3/1 9/3/1 1/3/1
f 13/3/1 11/3/1 9/3/1
f 13/3/1 12/3/1 11/3/1
f 14/3/1 12/3/1 13/3/1
f 15/3/1 12/3/1 14/3/1
f 16/3/1 12/3/1 15/3/1
f 17/3/1 15/3/1 14/3/1
f 17/1/1 16/1/1 15/1/1
f 18/3/1 12/3/1 16/3/1
f 18/1/1 16/1/1 17/1/1
f 19/3/1 12/3/1 18/3/1
f 20/1/1 8/1/1 12/1/1
f 20/3/1 12/3/1 19/3/1
f 21/1/1 8/1/1 20/1/1
f 22/3/1 19/3/1 18/3/1
f 22/3/1 18/3/1 17/3/1
f 22/1/1 20/1/1 19/1/1
f 23/3/1 21/3/1 20/3/1
f 23/1/1 20/1/1 22/1/1
f 24/1/1 14/1/1 13/1/1
f 25/3/1 17/3/1 14/3/1
f 25/1/1 14/1/1 24/1/1
f 25/3/1 22/3/1 17/3/1
f 25/3/1 23/3/1 22/3/1
f 26/3/1 21/3/1 23/3/1
f 26/3/1 23/3/1 25/3/1
f 27/3/2 28/3/2 31/3/2
f 28/1/2 29/1/2 31/1/2
f 31/1/2 29/1/2 32/1/2
f 29/3/2 30/3/2 33/3/2
f 32/1/2 29/1/2 33/1/2
f 33/3/2 30/3/2 34/3/2
f 33/1/2 34/1/2 35/1/2
f 34/3/2 30/3/2 36/3/2
f 35/1/2 34/1/2 36/1/2
f 31/3/2 32/3/2 37/3/2
f 27/3/2 31/3/2 37/3/2
f 32/1/2 33/1/2 38/1/2
f 37/3/2 32/3/2 38/3/2
f 33/1/2 35/1/2 38/1/2
f 35/3/2 36/3/2 39/3/2
f 38/1/2 35/1/2 39/1/2
f 36/3/2 30/3/2 40/3/2
f 39/3/2 36/3/2 40/3/2
f 38/1/2 39/1/2 41/1/2
f 37/1/2 38/1/2 41/1/2
f 39/1/2 40/1/2 41/1/2
f 27/3/2 37/3/2 41/3/2
f 41/1/2 40/1/2 42/1/2
f 40/3/2 30/3/2 43/3/2
f 42/1/2 40/1/2 43/1/2
f 43/3/2 30/3/2 44/3/2
f 41/3/2 42/3/2 45/3/2
f 42/1/2 43/1/2 45/1/2
f 43/1/2 44/1/2 45/1/2
f 45/1/2 44/1/2 46/1/2
f 41/3/2 45/3/2 47/3/2
f 45/3/2 46/3/2 47/3/2
f 47/3/2 46/3/2 48/3/2
f 46/1/2 44/1/2 49/1/2
f 48/3/2 46/3/2 49/3/2
f 49/1/2 44/1/2 50/1/2
f 27/3/2 41/3/2 51/3/2
f 41/3/2 47/3/2 51/3/2
f 51/3/2 47/3/2 52/3/2
f 51/1/2 52/1/2 53/1/2
f 52/3/2 47/3/2 54/3/2
f 53/1/2 52/1/2 54/1/2
f 47/1/2 48/1/2 55/1/2
f 54/3/2 47/3/2 55/3/2
f 49/3/2 50/3/2 56/3/2
f 55/1/2 48/1/2 56/1/2
f 48/3/2 49/3/2 56/3/2
f 56/3/2 50/3/2 57/3/2
f 61/3/3 59/3/3 58/3/3
f 62/3/3 59/3/3 61/3/3
f 63/3/3 61/3/3 58/3/3
f 63/1/3 62/1/3 61/1/3
f 64/3/3 59/3/3 62/3/3
f 64/1/3 62/1/3 63/1/3
f 65/3/3 59/3/3 64/3/3
f 66/1/3 60/1/3 59/1/3
f 66/3/3 59/3/3 65/3/3
f 67/1/3 60/1/3 66/1/3
f 68/3/3 63/3/3 58/3/3
f 68/3/3 64/3/3 63/3/3
f 69/3/3 64/3/3 68/3/3
f 70/1/3 65/1/3 64/1/3
f 70/3/3 67/3/3 66/3/3
f 70/3/3 66/3/3 65/3/3
f 71/3/3 67/3/3 70/3/3
f 72/3/3 64/3/3 69/3/3
f 72/1/3 69/1/3 68/1/3
f 73/3/3 64/3/3 72/3/3
f 74/1/3 71/1/3 70/1/3
f 74/3/3 64/3/3 73/3/3
f 74/1/3 70/1/3 64/1/3
f 75/1/3 71/1/3 74/1/3
f 76/1/3 73/1/3 72/1/3
f 76/3/3 74/3/3 73/3/3
f 76/3/3 75/3/3 74/3/3
f 77/3/3 75/3/3 76/3/3
f 78/1/3 72/1/3 68/1/3
f 78/1/3 76/1/3 72/1/3
f 78/1/3 77/1/3 76/1/3
f 79/1/3 77/1/3 78/1/3
f 80/1/3 71/1/3 75/1/3
f 81/1/3 71/1/3 80/1/3
f 82/3/3 75/3/3 77/3/3
f 82/1/3 80/1/3 75/1/3
f 83/3/3 81/3/3 80/3/3
f 83/1/3 80/1/3 82/1/3
f 84/1/3 77/1/3 79/1/3
f 84/3/3 79/3/3 78/3/3
f 85/3/3 83/3/3 82/3/3
f 85/1/3 77/1/3 84/1/3
f 85/3/3 82/3/3 77/3/3
f 86/3/3 83/3/3 85/3/3
f 87/3/3 81/3/3 83/3/3
f 87/3/3 83/3/3 86/3/3
f 88/3/3 86/3/3 85/3/3
f 88/3/3 84/3/3 78/3/3
f 88/3/3 85/3/3 84/3/3
f 89/1/3 87/1/3 86/1/3
f 89/3/3 86/3/3 88/3/3
f 90/1/3 87/1/3 89/1/3
f 92/1/4 93/1/4 95/1/4
f 93/3/4 94/3/4 96/3/4
f 95/1/4 93/1/4 96/1/4
f 92/1/4 95/1/4 97/1/4
f 95/3/4 96/3/4 97/3/4
f 96/3/4 94/3/4 98/3/4
f 97/3/4 96/3/4 98/3/4
f 91/3/4 92/3/4 99/3/4
f 92/1/4 97/1/4 99/1/4
f 97/1/4 98/1/4 99/1/4
f 99/1/4 98/1/4 100/1/4
f 91/3/4 99/3/4 101/3/4
f 99/3/4 100/3/4 101/3/4
f 101/3/4 100/3/4 102/3/4
f 100/1/4 98/1/4 103/1/4
f 102/3/4 100/3/4 103/3/4
f 98/3/4 94/3/4 104/3/4
f 103/1/4 98/1/4 104/1/4
f 102/3/4 103/3/4 105/3/4
f 103/3/4 104/3/4 105/3/4
f 104/3/4 94/3/4 106/3/4
f 105/3/4 104/3/4 106/3/4
f 101/1/4 102/1/4 107/1/4
f 102/3/4 105/3/4 108/3/4
f 107/1/4 102/1/4 108/1/4
f 107/3/4 108/3/4 109/3/4
f 108/3/4 105/3/4 109/3/4
f 105/1/4 106/1/4 110/1/4
f 109/3/4 105/3/4 110/3/4
f 110/1/4 106/1/4 111/1/4
f 107/3/4 109/3/4 112/3/4
f 109/1/4 110/1/4 113/1/4
f 112/3/4 109/3/4 113/3/4
f 110/3/4 111/3/4 114/3/4
f 113/1/4 110/1/4 114/1/4
f 114/3/4 111/3/4 115/3/4
f 120/3/5 117/3/5 116/3/5
f 121/3/5 117/3/5 120/3/5
f 122/1/5 118/1/5 117/1/5
f 122/3/5 117/3/5 121/3/5
f 123/1/5 118/1/5 122/1/5
f 124/3/5 119/3/5 118/3/5
f 124/1/5 118/1/5 123/1/5
f 125/3/5 119/3/5 124/3/5
f 126/3/5 123/3/5 122/3/5
f 126/3/5 122/3/5 121/3/5
f 126/1/5 125/1/5 124/1/5
f 126/1/5 124/1/5 123/1/5
f 127/1/5 125/1/5 126/1/5
f 128/3/5 126/3/5 121/3/5
f 128/3/5 127/3/5 126/3/5
f 129/1/5 125/1/5 127/1/5
f 129/3/5 127/3/5 128/3/5
f 130/1/5 125/1/5 129/1/5
f 131/1/5 125/1/5 130/1/5
f 132/1/5 121/1/5 120/1/5
f 133/3/5 128/3/5 121/3/5
f 133/1/5 121/1/5 132/1/5
f 134/1/5 129/1/5 128/1/5
f 134/1/5 130/1/5 129/1/5
f 135/3/5 131/3/5 130/3/5
f 135/1/5 130/1/5 134/1/5
f 136/3/5 133/3/5 132/3/5
f 137/3/5 128/3/5 133/3/5
f 137/3/5 133/3/5 136/3/5
f 137/1/5 134/1/5 128/1/5
f 138/3/5 135/3/5 134/3/5
f 138/1/5 134/1/5 137/1/5
f 139/3/5 131/3/5 135/3/5
f 139/3/5 135/3/5 138/3/5
f 140/1/6 141/1/6 146/1/6
f 141/3/6 142/3/6 147/3/6
f 146/1/6 141/1/6 147/1/6
f 142/1/6 143/1/6 148/1/6
f 147/3/6 142/3/6 148/3/6
f 148/1/6 143/1/6 149/1/6
f 149/1/6 143/1/6 150/1/6
f 143/3/6 144/3/6 151/3/6
f 150/1/6 143/1/6 151/1/6
f 140/1/6 146/1/6 152/1/6
f 146/3/6 147/3/6 153/3/6
f 152/1/6 146/1/6 153/1/6
f 147/3/6 148/3/6 153/3/6
f 148/3/6 149/3/6 153/3/6
f 153/3/6 149/3/6 154/3/6
f 149/1/6 150/1/6 155/1/6
f 154/3/6 149/3/6 155/3/6
f 144/1/6 145/1/6 156/1/6
f 151/3/6 144/3/6 156/3/6
f 150/3/6 151/3/6 156/3/6
f 156/1/6 145/1/6 157/1/6
f 156/3/6 157/3/6 158/3/6
f 158/3/6 157/3/6 159/3/6
f 150/3/6 156/3/6 160/3/6
f 156/3/6 158/3/6 160/3/6
f 158/1/6 159/1/6 161/1/6
f 160/3/6 158/3/6 161/3/6
f 154/1/6 155/1/6 162/1/6
f 153/3/6 154/3/6 162/3/6
f 152/3/6 153/3/6 162/3/6
f 155/1/6 150/1/6 163/1/6
f 162/1/6 155/1/6 163/1/6
f 150/3/6 160/3/6 163/3/6
f 160/1/6 161/1/6 164/1/6
f 163/3/6 160/3/6 164/3/6
f 161/1/6 159/1/6 165/1/6
f 164/1/6 161/1/6 165/1/6
f 152/3/6 162/3/6 166/3/6
f 163/3/6 164/3/6 166/3/6
f 164/3/6 165/3/6 166/3/6
f 162/3/6 163/3/6 166/3/6
f 166/3/6 165/3/6 167/3/6
f 167/3/6 165/3/6 168/3/6
f 165/1/6 159/1/6 169/1/6
f 168/3/6 165/3/6 169/3/6
f 169/1/6 159/1/6 170/1/6
f 168/1/6 169/1/6 171/1/6
f 169/3/6 170/3/6 172/3/6
f 171/1/6 169/1/6 172/1/6
f 152/3/6 166/3/6 173/3/6
f 166/1/6 167/1/6 173/1/6
f 167/3/6 168/3/6 174/3/6
f 173/1/6 167/1/6 174/1/6
f 174/3/6 168/3/6 175/3/6
f 168/1/6 171/1/6 176/1/6
f 175/3/6 168/3/6 176/3/6
f 174/3/6 175/3/6 177/3/6
f 173/3/6 174/3/6 177/3/6
f 175/1/6 176/1/6 177/1/6
f 176/1/6 171/1/6 178/1/6
f 177/1/6 176/1/6 178/1/6
f 152/3/6 173/3/6 179/3/6
f 173/3/6 177/3/6 179/3/6
f 177/3/6 178/3/6 179/3/6
f 178/1/6 171/1/6 180/1/6
f 179/3/6 178/3/6 180/3/6
f 171/3/6 172/3/6 181/3/6
f 180/1/6 171/1/6 181/1/6
f 172/3/6 170/3/6 182/3/6
f 181/3/6 172/3/6 182/3/6
