# MagicaVoxel @ Ephtracy

# group
o 

# material
mtllib Building.mtl
usemtl palette

# normals
vn -1 0 0
vn 1 0 0
vn 0 0 1
vn 0 0 -1
vn 0 -1 0
vn 0 1 0

# texcoords
vt 0.775391 0.5
vt 0.986328 0.5
vt 0.990234 0.5

# verts
v -0.8 0 1.1
v -0.8 0 -1.1
v -0.8 4 1.1
v -0.8 4 -1.1
v 0.8 0 1.1
v 0.8 0 0.9
v 0.8 0 0.4
v 0.8 0 0.2
v 0.8 0 -0.2
v 0.8 0 -0.4
v 0.8 0 -0.9
v 0.8 0 -1.1
v 0.8 0.2 0.9
v 0.8 0.2 0.4
v 0.8 0.2 -0.4
v 0.8 0.2 -0.9
v 0.8 0.3 0.9
v 0.8 0.3 0.4
v 0.8 0.3 -0.4
v 0.8 0.3 -0.9
v 0.8 0.5 0.9
v 0.8 0.5 0.4
v 0.8 0.5 0.2
v 0.8 0.5 -0.2
v 0.8 0.5 -0.4
v 0.8 0.5 -0.9
v 0.8 0.6 0.9
v 0.8 0.6 0.4
v 0.8 0.6 -0.4
v 0.8 0.6 -0.9
v 0.8 0.8 0.9
v 0.8 0.8 0.4
v 0.8 0.8 -0.4
v 0.8 0.8 -0.9
v 0.8 0.9 0.9
v 0.8 0.9 0.4
v 0.8 0.9 -0.4
v 0.8 0.9 -0.9
v 0.8 1.1 0.9
v 0.8 1.1 0.4
v 0.8 1.1 -0.4
v 0.8 1.1 -0.9
v 0.8 1.2 0.9
v 0.8 1.2 0.4
v 0.8 1.2 -0.4
v 0.8 1.2 -0.9
v 0.8 1.4 0.9
v 0.8 1.4 0.4
v 0.8 1.4 -0.4
v 0.8 1.4 -0.9
v 0.8 1.5 0.9
v 0.8 1.5 0.4
v 0.8 1.5 -0.4
v 0.8 1.5 -0.9
v 0.8 1.7 0.9
v 0.8 1.7 0.4
v 0.8 1.7 -0.4
v 0.8 1.7 -0.9
v 0.8 1.8 0.9
v 0.8 1.8 0.4
v 0.8 1.8 -0.4
v 0.8 1.8 -0.9
v 0.8 2 0.9
v 0.8 2 0.4
v 0.8 2 -0.4
v 0.8 2 -0.9
v 0.8 2.1 0.9
v 0.8 2.1 0.4
v 0.8 2.1 -0.4
v 0.8 2.1 -0.9
v 0.8 2.3 0.9
v 0.8 2.3 0.4
v 0.8 2.3 -0.4
v 0.8 2.3 -0.9
v 0.8 2.4 0.9
v 0.8 2.4 0.4
v 0.8 2.4 -0.4
v 0.8 2.4 -0.9
v 0.8 2.6 0.9
v 0.8 2.6 0.4
v 0.8 2.6 -0.4
v 0.8 2.6 -0.9
v 0.8 2.7 0.9
v 0.8 2.7 0.4
v 0.8 2.7 -0.4
v 0.8 2.7 -0.9
v 0.8 2.9 0.9
v 0.8 2.9 0.4
v 0.8 2.9 -0.4
v 0.8 2.9 -0.9
v 0.8 3 0.9
v 0.8 3 0.4
v 0.8 3 -0.4
v 0.8 3 -0.9
v 0.8 3.2 0.9
v 0.8 3.2 0.4
v 0.8 3.2 -0.4
v 0.8 3.2 -0.9
v 0.8 3.3 0.9
v 0.8 3.3 0.4
v 0.8 3.3 -0.4
v 0.8 3.3 -0.9
v 0.8 3.5 0.9
v 0.8 3.5 0.4
v 0.8 3.5 -0.4
v 0.8 3.5 -0.9
v 0.8 4 1.1
v 0.8 4 -1.1
v -0.8 0 1.1
v -0.8 4 1.1
v -0.6 0 1.1
v -0.6 0.2 1.1
v -0.6 0.3 1.1
v -0.6 0.5 1.1
v -0.6 0.6 1.1
v -0.6 0.8 1.1
v -0.6 0.9 1.1
v -0.6 1.1 1.1
v -0.6 1.2 1.1
v -0.6 1.4 1.1
v -0.6 1.5 1.1
v -0.6 1.7 1.1
v -0.6 1.8 1.1
v -0.6 2 1.1
v -0.6 2.1 1.1
v -0.6 2.3 1.1
v -0.6 2.4 1.1
v -0.6 2.6 1.1
v -0.6 2.7 1.1
v -0.6 2.9 1.1
v -0.6 3 1.1
v -0.6 3.2 1.1
v -0.6 3.3 1.1
v -0.6 3.5 1.1
v -0.1 0 1.1
v -0.1 0.2 1.1
v -0.1 0.3 1.1
v -0.1 0.5 1.1
v -0.1 0.6 1.1
v -0.1 0.8 1.1
v -0.1 0.9 1.1
v -0.1 1.1 1.1
v -0.1 1.2 1.1
v -0.1 1.4 1.1
v -0.1 1.5 1.1
v -0.1 1.7 1.1
v -0.1 1.8 1.1
v -0.1 2 1.1
v -0.1 2.1 1.1
v -0.1 2.3 1.1
v -0.1 2.4 1.1
v -0.1 2.6 1.1
v -0.1 2.7 1.1
v -0.1 2.9 1.1
v -0.1 3 1.1
v -0.1 3.2 1.1
v -0.1 3.3 1.1
v -0.1 3.5 1.1
v 0.1 0 1.1
v 0.1 0.2 1.1
v 0.1 0.3 1.1
v 0.1 0.5 1.1
v 0.1 0.6 1.1
v 0.1 0.8 1.1
v 0.1 0.9 1.1
v 0.1 1.1 1.1
v 0.1 1.2 1.1
v 0.1 1.4 1.1
v 0.1 1.5 1.1
v 0.1 1.7 1.1
v 0.1 1.8 1.1
v 0.1 2 1.1
v 0.1 2.1 1.1
v 0.1 2.3 1.1
v 0.1 2.4 1.1
v 0.1 2.6 1.1
v 0.1 2.7 1.1
v 0.1 2.9 1.1
v 0.1 3 1.1
v 0.1 3.2 1.1
v 0.1 3.3 1.1
v 0.1 3.5 1.1
v 0.6 0 1.1
v 0.6 0.2 1.1
v 0.6 0.3 1.1
v 0.6 0.5 1.1
v 0.6 0.6 1.1
v 0.6 0.8 1.1
v 0.6 0.9 1.1
v 0.6 1.1 1.1
v 0.6 1.2 1.1
v 0.6 1.4 1.1
v 0.6 1.5 1.1
v 0.6 1.7 1.1
v 0.6 1.8 1.1
v 0.6 2 1.1
v 0.6 2.1 1.1
v 0.6 2.3 1.1
v 0.6 2.4 1.1
v 0.6 2.6 1.1
v 0.6 2.7 1.1
v 0.6 2.9 1.1
v 0.6 3 1.1
v 0.6 3.2 1.1
v 0.6 3.3 1.1
v 0.6 3.5 1.1
v 0.8 0 1.1
v 0.8 4 1.1
v -0.8 0 -1.1
v -0.8 4 -1.1
v -0.6 0 -1.1
v -0.6 0.2 -1.1
v -0.6 0.3 -1.1
v -0.6 0.5 -1.1
v -0.6 0.6 -1.1
v -0.6 0.8 -1.1
v -0.6 0.9 -1.1
v -0.6 1.1 -1.1
v -0.6 1.2 -1.1
v -0.6 1.4 -1.1
v -0.6 1.5 -1.1
v -0.6 1.7 -1.1
v -0.6 1.8 -1.1
v -0.6 2 -1.1
v -0.6 2.1 -1.1
v -0.6 2.3 -1.1
v -0.6 2.4 -1.1
v -0.6 2.6 -1.1
v -0.6 2.7 -1.1
v -0.6 2.9 -1.1
v -0.6 3 -1.1
v -0.6 3.2 -1.1
v -0.6 3.3 -1.1
v -0.6 3.5 -1.1
v -0.1 0 -1.1
v -0.1 0.2 -1.1
v -0.1 0.3 -1.1
v -0.1 0.5 -1.1
v -0.1 0.6 -1.1
v -0.1 0.8 -1.1
v -0.1 0.9 -1.1
v -0.1 1.1 -1.1
v -0.1 1.2 -1.1
v -0.1 1.4 -1.1
v -0.1 1.5 -1.1
v -0.1 1.7 -1.1
v -0.1 1.8 -1.1
v -0.1 2 -1.1
v -0.1 2.1 -1.1
v -0.1 2.3 -1.1
v -0.1 2.4 -1.1
v -0.1 2.6 -1.1
v -0.1 2.7 -1.1
v -0.1 2.9 -1.1
v -0.1 3 -1.1
v -0.1 3.2 -1.1
v -0.1 3.3 -1.1
v -0.1 3.5 -1.1
v 0.1 0 -1.1
v 0.1 0.2 -1.1
v 0.1 0.3 -1.1
v 0.1 0.5 -1.1
v 0.1 0.6 -1.1
v 0.1 0.8 -1.1
v 0.1 0.9 -1.1
v 0.1 1.1 -1.1
v 0.1 1.2 -1.1
v 0.1 1.4 -1.1
v 0.1 1.5 -1.1
v 0.1 1.7 -1.1
v 0.1 1.8 -1.1
v 0.1 2 -1.1
v 0.1 2.1 -1.1
v 0.1 2.3 -1.1
v 0.1 2.4 -1.1
v 0.1 2.6 -1.1
v 0.1 2.7 -1.1
v 0.1 2.9 -1.1
v 0.1 3 -1.1
v 0.1 3.2 -1.1
v 0.1 3.3 -1.1
v 0.1 3.5 -1.1
v 0.6 0 -1.1
v 0.6 0.2 -1.1
v 0.6 0.3 -1.1
v 0.6 0.5 -1.1
v 0.6 0.6 -1.1
v 0.6 0.8 -1.1
v 0.6 0.9 -1.1
v 0.6 1.1 -1.1
v 0.6 1.2 -1.1
v 0.6 1.4 -1.1
v 0.6 1.5 -1.1
v 0.6 1.7 -1.1
v 0.6 1.8 -1.1
v 0.6 2 -1.1
v 0.6 2.1 -1.1
v 0.6 2.3 -1.1
v 0.6 2.4 -1.1
v 0.6 2.6 -1.1
v 0.6 2.7 -1.1
v 0.6 2.9 -1.1
v 0.6 3 -1.1
v 0.6 3.2 -1.1
v 0.6 3.3 -1.1
v 0.6 3.5 -1.1
v 0.8 0 -1.1
v 0.8 4 -1.1
v -0.8 0 1.1
v -0.6 0 1.1
v -0.1 0 1.1
v 0.1 0 1.1
v 0.6 0 1.1
v 0.8 0 1.1
v -0.6 0 1
v -0.1 0 1
v 0.1 0 1
v 0.6 0 1
v 0.7 0 0.9
v 0.8 0 0.9
v 0.7 0 0.4
v 0.8 0 0.4
v 0.7 0 0.2
v 0.8 0 0.2
v 0.7 0 -0.2
v 0.8 0 -0.2
v 0.7 0 -0.4
v 0.8 0 -0.4
v 0.7 0 -0.9
v 0.8 0 -0.9
v -0.6 0 -1
v -0.1 0 -1
v 0.1 0 -1
v 0.6 0 -1
v -0.8 0 -1.1
v -0.6 0 -1.1
v -0.1 0 -1.1
v 0.1 0 -1.1
v 0.6 0 -1.1
v 0.8 0 -1.1
v -0.8 4 1.1
v 0.8 4 1.1
v -0.8 4 -1.1
v 0.8 4 -1.1

# faces
f 3/2/1 2/2/1 1/2/1
f 4/2/1 2/2/1 3/2/1
f 5/2/2 6/2/2 13/2/2
f 6/1/2 7/1/2 13/1/2
f 7/2/2 8/2/2 14/2/2
f 13/1/2 7/1/2 14/1/2
f 10/1/2 11/1/2 15/1/2
f 9/2/2 10/2/2 15/2/2
f 11/2/2 12/2/2 16/2/2
f 15/1/2 11/1/2 16/1/2
f 5/2/2 13/2/2 17/2/2
f 13/2/2 14/2/2 17/2/2
f 14/2/2 8/2/2 18/2/2
f 17/2/2 14/2/2 18/2/2
f 9/2/2 15/2/2 19/2/2
f 15/2/2 16/2/2 19/2/2
f 16/2/2 12/2/2 20/2/2
f 19/2/2 16/2/2 20/2/2
f 5/2/2 17/2/2 21/2/2
f 17/1/2 18/1/2 21/1/2
f 18/2/2 8/2/2 22/2/2
f 21/1/2 18/1/2 22/1/2
f 8/3/2 9/3/2 23/3/2
f 22/2/2 8/2/2 23/2/2
f 9/2/2 19/2/2 24/2/2
f 23/3/2 9/3/2 24/3/2
f 19/1/2 20/1/2 25/1/2
f 24/2/2 19/2/2 25/2/2
f 20/2/2 12/2/2 26/2/2
f 25/1/2 20/1/2 26/1/2
f 5/2/2 21/2/2 27/2/2
f 24/2/2 25/2/2 27/2/2
f 25/2/2 26/2/2 27/2/2
f 23/2/2 24/2/2 27/2/2
f 21/2/2 22/2/2 27/2/2
f 22/2/2 23/2/2 27/2/2
f 27/2/2 26/2/2 28/2/2
f 28/2/2 26/2/2 29/2/2
f 26/2/2 12/2/2 30/2/2
f 29/2/2 26/2/2 30/2/2
f 5/2/2 27/2/2 31/2/2
f 27/1/2 28/1/2 31/1/2
f 28/2/2 29/2/2 32/2/2
f 31/1/2 28/1/2 32/1/2
f 29/1/2 30/1/2 33/1/2
f 32/2/2 29/2/2 33/2/2
f 30/2/2 12/2/2 34/2/2
f 33/1/2 30/1/2 34/1/2
f 5/2/2 31/2/2 35/2/2
f 32/2/2 33/2/2 35/2/2
f 33/2/2 34/2/2 35/2/2
f 31/2/2 32/2/2 35/2/2
f 35/2/2 34/2/2 36/2/2
f 36/2/2 34/2/2 37/2/2
f 34/2/2 12/2/2 38/2/2
f 37/2/2 34/2/2 38/2/2
f 5/2/2 35/2/2 39/2/2
f 35/1/2 36/1/2 39/1/2
f 36/2/2 37/2/2 40/2/2
f 39/1/2 36/1/2 40/1/2
f 37/1/2 38/1/2 41/1/2
f 40/2/2 37/2/2 41/2/2
f 38/2/2 12/2/2 42/2/2
f 41/1/2 38/1/2 42/1/2
f 5/2/2 39/2/2 43/2/2
f 40/2/2 41/2/2 43/2/2
f 41/2/2 42/2/2 43/2/2
f 39/2/2 40/2/2 43/2/2
f 43/2/2 42/2/2 44/2/2
f 44/2/2 42/2/2 45/2/2
f 42/2/2 12/2/2 46/2/2
f 45/2/2 42/2/2 46/2/2
f 5/2/2 43/2/2 47/2/2
f 43/1/2 44/1/2 47/1/2
f 44/2/2 45/2/2 48/2/2
f 47/1/2 44/1/2 48/1/2
f 45/1/2 46/1/2 49/1/2
f 48/2/2 45/2/2 49/2/2
f 46/2/2 12/2/2 50/2/2
f 49/1/2 46/1/2 50/1/2
f 5/2/2 47/2/2 51/2/2
f 48/2/2 49/2/2 51/2/2
f 49/2/2 50/2/2 51/2/2
f 47/2/2 48/2/2 51/2/2
f 51/2/2 50/2/2 52/2/2
f 52/2/2 50/2/2 53/2/2
f 50/2/2 12/2/2 54/2/2
f 53/2/2 50/2/2 54/2/2
f 5/2/2 51/2/2 55/2/2
f 51/1/2 52/1/2 55/1/2
f 52/2/2 53/2/2 56/2/2
f 55/1/2 52/1/2 56/1/2
f 53/1/2 54/1/2 57/1/2
f 56/2/2 53/2/2 57/2/2
f 54/2/2 12/2/2 58/2/2
f 57/1/2 54/1/2 58/1/2
f 5/2/2 55/2/2 59/2/2
f 56/2/2 57/2/2 59/2/2
f 57/2/2 58/2/2 59/2/2
f 55/2/2 56/2/2 59/2/2
f 59/2/2 58/2/2 60/2/2
f 60/2/2 58/2/2 61/2/2
f 58/2/2 12/2/2 62/2/2
f 61/2/2 58/2/2 62/2/2
f 5/2/2 59/2/2 63/2/2
f 59/1/2 60/1/2 63/1/2
f 60/2/2 61/2/2 64/2/2
f 63/1/2 60/1/2 64/1/2
f 61/1/2 62/1/2 65/1/2
f 64/2/2 61/2/2 65/2/2
f 62/2/2 12/2/2 66/2/2
f 65/1/2 62/1/2 66/1/2
f 5/2/2 63/2/2 67/2/2
f 64/2/2 65/2/2 67/2/2
f 65/2/2 66/2/2 67/2/2
f 63/2/2 64/2/2 67/2/2
f 67/2/2 66/2/2 68/2/2
f 68/2/2 66/2/2 69/2/2
f 66/2/2 12/2/2 70/2/2
f 69/2/2 66/2/2 70/2/2
f 5/2/2 67/2/2 71/2/2
f 67/1/2 68/1/2 71/1/2
f 68/2/2 69/2/2 72/2/2
f 71/1/2 68/1/2 72/1/2
f 69/1/2 70/1/2 73/1/2
f 72/2/2 69/2/2 73/2/2
f 70/2/2 12/2/2 74/2/2
f 73/1/2 70/1/2 74/1/2
f 5/2/2 71/2/2 75/2/2
f 72/2/2 73/2/2 75/2/2
f 73/2/2 74/2/2 75/2/2
f 71/2/2 72/2/2 75/2/2
f 75/2/2 74/2/2 76/2/2
f 76/2/2 74/2/2 77/2/2
f 74/2/2 12/2/2 78/2/2
f 77/2/2 74/2/2 78/2/2
f 5/2/2 75/2/2 79/2/2
f 75/1/2 76/1/2 79/1/2
f 76/2/2 77/2/2 80/2/2
f 79/1/2 76/1/2 80/1/2
f 77/1/2 78/1/2 81/1/2
f 80/2/2 77/2/2 81/2/2
f 78/2/2 12/2/2 82/2/2
f 81/1/2 78/1/2 82/1/2
f 5/2/2 79/2/2 83/2/2
f 80/2/2 81/2/2 83/2/2
f 81/2/2 82/2/2 83/2/2
f 79/2/2 80/2/2 83/2/2
f 83/2/2 82/2/2 84/2/2
f 84/2/2 82/2/2 85/2/2
f 82/2/2 12/2/2 86/2/2
f 85/2/2 82/2/2 86/2/2
f 5/2/2 83/2/2 87/2/2
f 83/1/2 84/1/2 87/1/2
f 84/2/2 85/2/2 88/2/2
f 87/1/2 84/1/2 88/1/2
f 85/1/2 86/1/2 89/1/2
f 88/2/2 85/2/2 89/2/2
f 86/2/2 12/2/2 90/2/2
f 89/1/2 86/1/2 90/1/2
f 5/2/2 87/2/2 91/2/2
f 88/2/2 89/2/2 91/2/2
f 89/2/2 90/2/2 91/2/2
f 87/2/2 88/2/2 91/2/2
f 91/2/2 90/2/2 92/2/2
f 92/2/2 90/2/2 93/2/2
f 90/2/2 12/2/2 94/2/2
f 93/2/2 90/2/2 94/2/2
f 5/2/2 91/2/2 95/2/2
f 91/1/2 92/1/2 95/1/2
f 92/2/2 93/2/2 96/2/2
f 95/1/2 92/1/2 96/1/2
f 93/1/2 94/1/2 97/1/2
f 96/2/2 93/2/2 97/2/2
f 94/2/2 12/2/2 98/2/2
f 97/1/2 94/1/2 98/1/2
f 5/2/2 95/2/2 99/2/2
f 96/2/2 97/2/2 99/2/2
f 97/2/2 98/2/2 99/2/2
f 95/2/2 96/2/2 99/2/2
f 99/2/2 98/2/2 100/2/2
f 100/2/2 98/2/2 101/2/2
f 98/2/2 12/2/2 102/2/2
f 101/2/2 98/2/2 102/2/2
f 5/2/2 99/2/2 103/2/2
f 99/1/2 100/1/2 103/1/2
f 100/2/2 101/2/2 104/2/2
f 103/1/2 100/1/2 104/1/2
f 101/1/2 102/1/2 105/1/2
f 104/2/2 101/2/2 105/2/2
f 102/2/2 12/2/2 106/2/2
f 105/1/2 102/1/2 106/1/2
f 5/2/2 103/2/2 107/2/2
f 104/2/2 105/2/2 107/2/2
f 105/2/2 106/2/2 107/2/2
f 103/2/2 104/2/2 107/2/2
f 106/2/2 12/2/2 108/2/2
f 107/2/2 106/2/2 108/2/2
f 111/2/3 110/2/3 109/2/3
f 112/2/3 110/2/3 111/2/3
f 113/2/3 110/2/3 112/2/3
f 114/2/3 110/2/3 113/2/3
f 115/2/3 110/2/3 114/2/3
f 116/2/3 110/2/3 115/2/3
f 117/2/3 110/2/3 116/2/3
f 118/2/3 110/2/3 117/2/3
f 119/2/3 110/2/3 118/2/3
f 120/2/3 110/2/3 119/2/3
f 121/2/3 110/2/3 120/2/3
f 122/2/3 110/2/3 121/2/3
f 123/2/3 110/2/3 122/2/3
f 124/2/3 110/2/3 123/2/3
f 125/2/3 110/2/3 124/2/3
f 126/2/3 110/2/3 125/2/3
f 127/2/3 110/2/3 126/2/3
f 128/2/3 110/2/3 127/2/3
f 129/2/3 110/2/3 128/2/3
f 130/2/3 110/2/3 129/2/3
f 131/2/3 110/2/3 130/2/3
f 132/2/3 110/2/3 131/2/3
f 133/2/3 110/2/3 132/2/3
f 134/2/3 110/2/3 133/2/3
f 135/1/3 112/1/3 111/1/3
f 136/2/3 113/2/3 112/2/3
f 136/1/3 112/1/3 135/1/3
f 137/1/3 114/1/3 113/1/3
f 137/2/3 113/2/3 136/2/3
f 138/2/3 115/2/3 114/2/3
f 138/1/3 114/1/3 137/1/3
f 139/1/3 116/1/3 115/1/3
f 139/2/3 115/2/3 138/2/3
f 140/2/3 117/2/3 116/2/3
f 140/1/3 116/1/3 139/1/3
f 141/1/3 118/1/3 117/1/3
f 141/2/3 117/2/3 140/2/3
f 142/2/3 119/2/3 118/2/3
f 142/1/3 118/1/3 141/1/3
f 143/1/3 120/1/3 119/1/3
f 143/2/3 119/2/3 142/2/3
f 144/2/3 121/2/3 120/2/3
f 144/1/3 120/1/3 143/1/3
f 145/1/3 122/1/3 121/1/3
f 145/2/3 121/2/3 144/2/3
f 146/2/3 123/2/3 122/2/3
f 146/1/3 122/1/3 145/1/3
f 147/1/3 124/1/3 123/1/3
f 147/2/3 123/2/3 146/2/3
f 148/2/3 125/2/3 124/2/3
f 148/1/3 124/1/3 147/1/3
f 149/1/3 126/1/3 125/1/3
f 149/2/3 125/2/3 148/2/3
f 150/2/3 127/2/3 126/2/3
f 150/1/3 126/1/3 149/1/3
f 151/1/3 128/1/3 127/1/3
f 151/2/3 127/2/3 150/2/3
f 152/2/3 129/2/3 128/2/3
f 152/1/3 128/1/3 151/1/3
f 153/1/3 130/1/3 129/1/3
f 153/2/3 129/2/3 152/2/3
f 154/2/3 131/2/3 130/2/3
f 154/1/3 130/1/3 153/1/3
f 155/1/3 132/1/3 131/1/3
f 155/2/3 131/2/3 154/2/3
f 156/2/3 133/2/3 132/2/3
f 156/1/3 132/1/3 155/1/3
f 157/1/3 134/1/3 133/1/3
f 157/2/3 133/2/3 156/2/3
f 158/2/3 110/2/3 134/2/3
f 158/1/3 134/1/3 157/1/3
f 159/2/3 157/2/3 156/2/3
f 159/2/3 136/2/3 135/2/3
f 159/2/3 158/2/3 157/2/3
f 159/2/3 156/2/3 155/2/3
f 159/2/3 155/2/3 154/2/3
f 159/2/3 154/2/3 153/2/3
f 159/2/3 153/2/3 152/2/3
f 159/2/3 152/2/3 151/2/3
f 159/2/3 151/2/3 150/2/3
f 159/2/3 150/2/3 149/2/3
f 159/2/3 149/2/3 148/2/3
f 159/2/3 148/2/3 147/2/3
f 159/2/3 147/2/3 146/2/3
f 159/2/3 146/2/3 145/2/3
f 159/2/3 145/2/3 144/2/3
f 159/2/3 144/2/3 143/2/3
f 159/2/3 143/2/3 142/2/3
f 159/2/3 142/2/3 141/2/3
f 159/2/3 141/2/3 140/2/3
f 159/2/3 140/2/3 139/2/3
f 159/2/3 139/2/3 138/2/3
f 159/2/3 138/2/3 137/2/3
f 159/2/3 137/2/3 136/2/3
f 160/2/3 158/2/3 159/2/3
f 161/2/3 158/2/3 160/2/3
f 162/2/3 158/2/3 161/2/3
f 163/2/3 158/2/3 162/2/3
f 164/2/3 158/2/3 163/2/3
f 165/2/3 158/2/3 164/2/3
f 166/2/3 158/2/3 165/2/3
f 167/2/3 158/2/3 166/2/3
f 168/2/3 158/2/3 167/2/3
f 169/2/3 158/2/3 168/2/3
f 170/2/3 158/2/3 169/2/3
f 171/2/3 158/2/3 170/2/3
f 172/2/3 158/2/3 171/2/3
f 173/2/3 158/2/3 172/2/3
f 174/2/3 158/2/3 173/2/3
f 175/2/3 158/2/3 174/2/3
f 176/2/3 158/2/3 175/2/3
f 177/2/3 158/2/3 176/2/3
f 178/2/3 158/2/3 177/2/3
f 179/2/3 158/2/3 178/2/3
f 180/2/3 158/2/3 179/2/3
f 181/2/3 158/2/3 180/2/3
f 182/2/3 110/2/3 158/2/3
f 182/2/3 158/2/3 181/2/3
f 183/1/3 160/1/3 159/1/3
f 184/2/3 161/2/3 160/2/3
f 184/1/3 160/1/3 183/1/3
f 185/1/3 162/1/3 161/1/3
f 185/2/3 161/2/3 184/2/3
f 186/2/3 163/2/3 162/2/3
f 186/1/3 162/1/3 185/1/3
f 187/1/3 164/1/3 163/1/3
f 187/2/3 163/2/3 186/2/3
f 188/2/3 165/2/3 164/2/3
f 188/1/3 164/1/3 187/1/3
f 189/1/3 166/1/3 165/1/3
f 189/2/3 165/2/3 188/2/3
f 190/2/3 167/2/3 166/2/3
f 190/1/3 166/1/3 189/1/3
f 191/1/3 168/1/3 167/1/3
f 191/2/3 167/2/3 190/2/3
f 192/2/3 169/2/3 168/2/3
f 192/1/3 168/1/3 191/1/3
f 193/1/3 170/1/3 169/1/3
f 193/2/3 169/2/3 192/2/3
f 194/2/3 171/2/3 170/2/3
f 194/1/3 170/1/3 193/1/3
f 195/1/3 172/1/3 171/1/3
f 195/2/3 171/2/3 194/2/3
f 196/2/3 173/2/3 172/2/3
f 196/1/3 172/1/3 195/1/3
f 197/1/3 174/1/3 173/1/3
f 197/2/3 173/2/3 196/2/3
f 198/2/3 175/2/3 174/2/3
f 198/1/3 174/1/3 197/1/3
f 199/1/3 176/1/3 175/1/3
f 199/2/3 175/2/3 198/2/3
f 200/2/3 177/2/3 176/2/3
f 200/1/3 176/1/3 199/1/3
f 201/1/3 178/1/3 177/1/3
f 201/2/3 177/2/3 200/2/3
f 202/2/3 179/2/3 178/2/3
f 202/1/3 178/1/3 201/1/3
f 203/1/3 180/1/3 179/1/3
f 203/2/3 179/2/3 202/2/3
f 204/2/3 181/2/3 180/2/3
f 204/1/3 180/1/3 203/1/3
f 205/1/3 182/1/3 181/1/3
f 205/2/3 181/2/3 204/2/3
f 206/2/3 110/2/3 182/2/3
f 206/1/3 182/1/3 205/1/3
f 207/2/3 203/2/3 202/2/3
f 207/2/3 205/2/3 204/2/3
f 207/2/3 206/2/3 205/2/3
f 207/2/3 204/2/3 203/2/3
f 207/2/3 202/2/3 201/2/3
f 207/2/3 201/2/3 200/2/3
f 207/2/3 200/2/3 199/2/3
f 207/2/3 199/2/3 198/2/3
f 207/2/3 198/2/3 197/2/3
f 207/2/3 197/2/3 196/2/3
f 207/2/3 196/2/3 195/2/3
f 207/2/3 195/2/3 194/2/3
f 207/2/3 194/2/3 193/2/3
f 207/2/3 193/2/3 192/2/3
f 207/2/3 192/2/3 191/2/3
f 207/2/3 191/2/3 190/2/3
f 207/2/3 190/2/3 189/2/3
f 207/2/3 189/2/3 188/2/3
f 207/2/3 188/2/3 187/2/3
f 207/2/3 187/2/3 186/2/3
f 207/2/3 186/2/3 185/2/3
f 207/2/3 185/2/3 184/2/3
f 207/2/3 184/2/3 183/2/3
f 208/2/3 110/2/3 206/2/3
f 208/2/3 206/2/3 207/2/3
f 209/2/4 210/2/4 211/2/4
f 211/2/4 210/2/4 212/2/4
f 212/2/4 210/2/4 213/2/4
f 213/2/4 210/2/4 214/2/4
f 214/2/4 210/2/4 215/2/4
f 215/2/4 210/2/4 216/2/4
f 216/2/4 210/2/4 217/2/4
f 217/2/4 210/2/4 218/2/4
f 218/2/4 210/2/4 219/2/4
f 219/2/4 210/2/4 220/2/4
f 220/2/4 210/2/4 221/2/4
f 221/2/4 210/2/4 222/2/4
f 222/2/4 210/2/4 223/2/4
f 223/2/4 210/2/4 224/2/4
f 224/2/4 210/2/4 225/2/4
f 225/2/4 210/2/4 226/2/4
f 226/2/4 210/2/4 227/2/4
f 227/2/4 210/2/4 228/2/4
f 228/2/4 210/2/4 229/2/4
f 229/2/4 210/2/4 230/2/4
f 230/2/4 210/2/4 231/2/4
f 231/2/4 210/2/4 232/2/4
f 232/2/4 210/2/4 233/2/4
f 233/2/4 210/2/4 234/2/4
f 211/1/4 212/1/4 235/1/4
f 212/2/4 213/2/4 236/2/4
f 235/1/4 212/1/4 236/1/4
f 213/1/4 214/1/4 237/1/4
f 236/2/4 213/2/4 237/2/4
f 214/2/4 215/2/4 238/2/4
f 237/1/4 214/1/4 238/1/4
f 215/1/4 216/1/4 239/1/4
f 238/2/4 215/2/4 239/2/4
f 216/2/4 217/2/4 240/2/4
f 239/1/4 216/1/4 240/1/4
f 217/1/4 218/1/4 241/1/4
f 240/2/4 217/2/4 241/2/4
f 218/2/4 219/2/4 242/2/4
f 241/1/4 218/1/4 242/1/4
f 219/1/4 220/1/4 243/1/4
f 242/2/4 219/2/4 243/2/4
f 220/2/4 221/2/4 244/2/4
f 243/1/4 220/1/4 244/1/4
f 221/1/4 222/1/4 245/1/4
f 244/2/4 221/2/4 245/2/4
f 222/2/4 223/2/4 246/2/4
f 245/1/4 222/1/4 246/1/4
f 223/1/4 224/1/4 247/1/4
f 246/2/4 223/2/4 247/2/4
f 224/2/4 225/2/4 248/2/4
f 247/1/4 224/1/4 248/1/4
f 225/1/4 226/1/4 249/1/4
f 248/2/4 225/2/4 249/2/4
f 226/2/4 227/2/4 250/2/4
f 249/1/4 226/1/4 250/1/4
f 227/1/4 228/1/4 251/1/4
f 250/2/4 227/2/4 251/2/4
f 228/2/4 229/2/4 252/2/4
f 251/1/4 228/1/4 252/1/4
f 229/1/4 230/1/4 253/1/4
f 252/2/4 229/2/4 253/2/4
f 230/2/4 231/2/4 254/2/4
f 253/1/4 230/1/4 254/1/4
f 231/1/4 232/1/4 255/1/4
f 254/2/4 231/2/4 255/2/4
f 232/2/4 233/2/4 256/2/4
f 255/1/4 232/1/4 256/1/4
f 233/1/4 234/1/4 257/1/4
f 256/2/4 233/2/4 257/2/4
f 234/2/4 210/2/4 258/2/4
f 257/1/4 234/1/4 258/1/4
f 256/2/4 257/2/4 259/2/4
f 235/2/4 236/2/4 259/2/4
f 257/2/4 258/2/4 259/2/4
f 255/2/4 256/2/4 259/2/4
f 254/2/4 255/2/4 259/2/4
f 253/2/4 254/2/4 259/2/4
f 252/2/4 253/2/4 259/2/4
f 251/2/4 252/2/4 259/2/4
f 250/2/4 251/2/4 259/2/4
f 249/2/4 250/2/4 259/2/4
f 248/2/4 249/2/4 259/2/4
f 247/2/4 248/2/4 259/2/4
f 246/2/4 247/2/4 259/2/4
f 245/2/4 246/2/4 259/2/4
f 244/2/4 245/2/4 259/2/4
f 243/2/4 244/2/4 259/2/4
f 242/2/4 243/2/4 259/2/4
f 241/2/4 242/2/4 259/2/4
f 240/2/4 241/2/4 259/2/4
f 239/2/4 240/2/4 259/2/4
f 238/2/4 239/2/4 259/2/4
f 237/2/4 238/2/4 259/2/4
f 236/2/4 237/2/4 259/2/4
f 259/2/4 258/2/4 260/2/4
f 260/2/4 258/2/4 261/2/4
f 261/2/4 258/2/4 262/2/4
f 262/2/4 258/2/4 263/2/4
f 263/2/4 258/2/4 264/2/4
f 264/2/4 258/2/4 265/2/4
f 265/2/4 258/2/4 266/2/4
f 266/2/4 258/2/4 267/2/4
f 267/2/4 258/2/4 268/2/4
f 268/2/4 258/2/4 269/2/4
f 269/2/4 258/2/4 270/2/4
f 270/2/4 258/2/4 271/2/4
f 271/2/4 258/2/4 272/2/4
f 272/2/4 258/2/4 273/2/4
f 273/2/4 258/2/4 274/2/4
f 274/2/4 258/2/4 275/2/4
f 275/2/4 258/2/4 276/2/4
f 276/2/4 258/2/4 277/2/4
f 277/2/4 258/2/4 278/2/4
f 278/2/4 258/2/4 279/2/4
f 279/2/4 258/2/4 280/2/4
f 280/2/4 258/2/4 281/2/4
f 258/2/4 210/2/4 282/2/4
f 281/2/4 258/2/4 282/2/4
f 259/1/4 260/1/4 283/1/4
f 260/2/4 261/2/4 284/2/4
f 283/1/4 260/1/4 284/1/4
f 261/1/4 262/1/4 285/1/4
f 284/2/4 261/2/4 285/2/4
f 262/2/4 263/2/4 286/2/4
f 285/1/4 262/1/4 286/1/4
f 263/1/4 264/1/4 287/1/4
f 286/2/4 263/2/4 287/2/4
f 264/2/4 265/2/4 288/2/4
f 287/1/4 264/1/4 288/1/4
f 265/1/4 266/1/4 289/1/4
f 288/2/4 265/2/4 289/2/4
f 266/2/4 267/2/4 290/2/4
f 289/1/4 266/1/4 290/1/4
f 267/1/4 268/1/4 291/1/4
f 290/2/4 267/2/4 291/2/4
f 268/2/4 269/2/4 292/2/4
f 291/1/4 268/1/4 292/1/4
f 269/1/4 270/1/4 293/1/4
f 292/2/4 269/2/4 293/2/4
f 270/2/4 271/2/4 294/2/4
f 293/1/4 270/1/4 294/1/4
f 271/1/4 272/1/4 295/1/4
f 294/2/4 271/2/4 295/2/4
f 272/2/4 273/2/4 296/2/4
f 295/1/4 272/1/4 296/1/4
f 273/1/4 274/1/4 297/1/4
f 296/2/4 273/2/4 297/2/4
f 274/2/4 275/2/4 298/2/4
f 297/1/4 274/1/4 298/1/4
f 275/1/4 276/1/4 299/1/4
f 298/2/4 275/2/4 299/2/4
f 276/2/4 277/2/4 300/2/4
f 299/1/4 276/1/4 300/1/4
f 277/1/4 278/1/4 301/1/4
f 300/2/4 277/2/4 301/2/4
f 278/2/4 279/2/4 302/2/4
f 301/1/4 278/1/4 302/1/4
f 279/1/4 280/1/4 303/1/4
f 302/2/4 279/2/4 303/2/4
f 280/2/4 281/2/4 304/2/4
f 303/1/4 280/1/4 304/1/4
f 281/1/4 282/1/4 305/1/4
f 304/2/4 281/2/4 305/2/4
f 282/2/4 210/2/4 306/2/4
f 305/1/4 282/1/4 306/1/4
f 302/2/4 303/2/4 307/2/4
f 304/2/4 305/2/4 307/2/4
f 305/2/4 306/2/4 307/2/4
f 303/2/4 304/2/4 307/2/4
f 301/2/4 302/2/4 307/2/4
f 300/2/4 301/2/4 307/2/4
f 299/2/4 300/2/4 307/2/4
f 298/2/4 299/2/4 307/2/4
f 297/2/4 298/2/4 307/2/4
f 296/2/4 297/2/4 307/2/4
f 295/2/4 296/2/4 307/2/4
f 294/2/4 295/2/4 307/2/4
f 293/2/4 294/2/4 307/2/4
f 292/2/4 293/2/4 307/2/4
f 291/2/4 292/2/4 307/2/4
f 290/2/4 291/2/4 307/2/4
f 289/2/4 290/2/4 307/2/4
f 288/2/4 289/2/4 307/2/4
f 287/2/4 288/2/4 307/2/4
f 286/2/4 287/2/4 307/2/4
f 285/2/4 286/2/4 307/2/4
f 284/2/4 285/2/4 307/2/4
f 283/2/4 284/2/4 307/2/4
f 306/2/4 210/2/4 308/2/4
f 307/2/4 306/2/4 308/2/4
f 315/2/5 310/2/5 309/2/5
f 315/1/5 311/1/5 310/1/5
f 316/2/5 312/2/5 311/2/5
f 316/1/5 311/1/5 315/1/5
f 317/1/5 313/1/5 312/1/5
f 317/2/5 312/2/5 316/2/5
f 318/2/5 314/2/5 313/2/5
f 318/1/5 313/1/5 317/1/5
f 319/2/5 317/2/5 316/2/5
f 319/2/5 314/2/5 318/2/5
f 319/2/5 318/2/5 317/2/5
f 319/2/5 316/2/5 315/2/5
f 320/2/5 314/2/5 319/2/5
f 321/2/5 319/2/5 315/2/5
f 321/1/5 320/1/5 319/1/5
f 322/1/5 320/1/5 321/1/5
f 323/2/5 321/2/5 315/2/5
f 323/2/5 322/2/5 321/2/5
f 324/2/5 322/2/5 323/2/5
f 325/2/5 323/2/5 315/2/5
f 325/3/5 324/3/5 323/3/5
f 326/3/5 324/3/5 325/3/5
f 327/2/5 325/2/5 315/2/5
f 327/2/5 326/2/5 325/2/5
f 328/2/5 326/2/5 327/2/5
f 329/2/5 327/2/5 315/2/5
f 329/1/5 328/1/5 327/1/5
f 330/1/5 328/1/5 329/1/5
f 331/2/5 315/2/5 309/2/5
f 331/2/5 329/2/5 315/2/5
f 331/2/5 330/2/5 329/2/5
f 332/2/5 330/2/5 331/2/5
f 333/2/5 330/2/5 332/2/5
f 334/2/5 330/2/5 333/2/5
f 335/2/5 331/2/5 309/2/5
f 336/1/5 332/1/5 331/1/5
f 336/2/5 331/2/5 335/2/5
f 337/2/5 333/2/5 332/2/5
f 337/1/5 332/1/5 336/1/5
f 338/1/5 334/1/5 333/1/5
f 338/2/5 333/2/5 337/2/5
f 339/2/5 330/2/5 334/2/5
f 339/1/5 334/1/5 338/1/5
f 340/2/5 330/2/5 339/2/5
f 341/2/6 342/2/6 343/2/6
f 343/2/6 342/2/6 344/2/6
