# MagicaVoxel @ Ephtracy

# group
o 

# material
mtllib Pistol.mtl
usemtl palette

# normals
vn -1 0 0
vn 1 0 0
vn 0 0 1
vn 0 0 -1
vn 0 -1 0
vn 0 1 0

# texcoords
vt 0.373047 0.5
vt 0.537109 0.5
vt 0.978516 0.5
vt 0.982422 0.5
vt 0.990234 0.5
vt 0.994141 0.5

# verts
v -0.5 0.7 0.1
v -0.5 0.7 -0.2
v -0.5 0.8 0
v -0.5 0.8 -0.1
v -0.5 0.9 0.1
v -0.5 0.9 0
v -0.5 0.9 -0.1
v -0.5 0.9 -0.2
v -0.5 1 0.1
v -0.5 1 -0.2
v -0.4 0.6 0.1
v -0.4 0.6 -0.2
v -0.4 0.7 0.1
v -0.4 0.7 -0.2
v 0.2 0.8 0
v 0.2 0.8 -0.1
v 0.2 0.9 0
v 0.2 0.9 -0.1
v 0.4 0.5 0
v 0.4 0.5 -0.1
v 0.4 0.6 0
v 0.4 0.6 -0.1
v 0.5 0.4 0
v 0.5 0.4 -0.1
v 0.5 0.5 0
v 0.5 0.5 -0.1
v 0.7 0.5 0
v 0.7 0.5 -0.1
v 0.7 0.6 0
v 0.7 0.6 -0.1
v 0.8 0.3 0.1
v 0.8 0.3 -0.2
v 0.8 0.4 0.1
v 0.8 0.4 0
v 0.8 0.4 -0.1
v 0.8 0.4 -0.2
v 0.8 0.5 0.1
v 0.8 0.5 0
v 0.8 0.5 -0.1
v 0.8 0.5 -0.2
v 0.8 0.6 0.1
v 0.8 0.6 0
v 0.8 0.6 -0.1
v 0.8 0.6 -0.2
v 0.9 0.1 0.1
v 0.9 0.1 -0.2
v 0.9 0.3 0.1
v 0.9 0.3 -0.2
v 0.5 0.5 0
v 0.5 0.5 -0.1
v 0.5 0.6 0
v 0.5 0.6 -0.1
v 1.1 0.5 0.1
v 1.1 0.5 -0.2
v 1.1 0.6 0.1
v 1.1 0.6 -0.2
v 1.1 0.9 0.1
v 1.1 0.9 -0.2
v 1.1 1 0.1
v 1.1 1 -0.2
v 1.2 0.1 0.1
v 1.2 0.1 -0.2
v 1.2 0.2 0.1
v 1.2 0.2 -0.2
v 1.2 0.4 0.1
v 1.2 0.4 -0.2
v 1.2 0.5 0.1
v 1.2 0.5 -0.2
v 1.2 0.6 0.1
v 1.2 0.6 -0.2
v 1.2 0.7 0.1
v 1.2 0.7 -0.2
v 1.2 0.8 0.1
v 1.2 0.8 -0.2
v 1.2 0.9 0.1
v 1.2 0.9 -0.2
v 1.3 0.2 0.1
v 1.3 0.2 -0.2
v 1.3 0.4 0.1
v 1.3 0.4 -0.2
v -0.5 0.7 0.1
v -0.5 0.9 0.1
v -0.5 1 0.1
v -0.4 0.6 0.1
v -0.4 0.7 0.1
v 0.4 0.6 0.1
v 0.4 0.7 0.1
v 0.5 0.6 0.1
v 0.5 0.7 0.1
v 0.5 0.8 0.1
v 0.5 0.9 0.1
v 0.5 1 0.1
v 0.7 0.9 0.1
v 0.7 1 0.1
v 0.8 0.3 0.1
v 0.8 0.4 0.1
v 0.8 0.5 0.1
v 0.8 0.6 0.1
v 0.9 0.1 0.1
v 0.9 0.3 0.1
v 0.9 0.4 0.1
v 0.9 0.5 0.1
v 0.9 0.6 0.1
v 0.9 0.7 0.1
v 0.9 0.8 0.1
v 1 0.2 0.1
v 1 0.3 0.1
v 1 0.4 0.1
v 1 0.5 0.1
v 1 0.6 0.1
v 1 0.7 0.1
v 1 0.8 0.1
v 1.1 0.3 0.1
v 1.1 0.4 0.1
v 1.1 0.5 0.1
v 1.1 0.6 0.1
v 1.1 0.7 0.1
v 1.1 0.8 0.1
v 1.1 0.9 0.1
v 1.1 1 0.1
v 1.2 0.1 0.1
v 1.2 0.2 0.1
v 1.2 0.4 0.1
v 1.2 0.5 0.1
v 1.2 0.6 0.1
v 1.2 0.7 0.1
v 1.2 0.8 0.1
v 1.2 0.9 0.1
v 1.3 0.2 0.1
v 1.3 0.4 0.1
v 0.4 0.5 0
v 0.4 0.6 0
v 0.5 0.4 0
v 0.5 0.5 0
v 0.5 0.6 0
v 0.7 0.5 0
v 0.7 0.6 0
v 0.8 0.4 0
v 0.8 0.5 0
v 0.8 0.6 0
v -0.5 0.8 -0.1
v -0.5 0.9 -0.1
v 0.2 0.8 -0.1
v 0.2 0.9 -0.1
v -0.5 0.8 0
v -0.5 0.9 0
v 0.2 0.8 0
v 0.2 0.9 0
v 0.4 0.5 -0.1
v 0.4 0.6 -0.1
v 0.5 0.4 -0.1
v 0.5 0.5 -0.1
v 0.5 0.6 -0.1
v 0.7 0.5 -0.1
v 0.7 0.6 -0.1
v 0.8 0.4 -0.1
v 0.8 0.5 -0.1
v 0.8 0.6 -0.1
v -0.5 0.7 -0.2
v -0.5 0.9 -0.2
v -0.5 1 -0.2
v -0.4 0.6 -0.2
v -0.4 0.7 -0.2
v 0.4 0.6 -0.2
v 0.4 0.7 -0.2
v 0.5 0.6 -0.2
v 0.5 0.7 -0.2
v 0.5 0.8 -0.2
v 0.5 0.9 -0.2
v 0.5 1 -0.2
v 0.7 0.9 -0.2
v 0.7 1 -0.2
v 0.8 0.3 -0.2
v 0.8 0.4 -0.2
v 0.8 0.5 -0.2
v 0.8 0.6 -0.2
v 0.9 0.1 -0.2
v 0.9 0.3 -0.2
v 0.9 0.4 -0.2
v 0.9 0.5 -0.2
v 0.9 0.6 -0.2
v 0.9 0.7 -0.2
v 0.9 0.8 -0.2
v 1 0.2 -0.2
v 1 0.3 -0.2
v 1 0.4 -0.2
v 1 0.5 -0.2
v 1 0.6 -0.2
v 1 0.7 -0.2
v 1 0.8 -0.2
v 1.1 0.3 -0.2
v 1.1 0.4 -0.2
v 1.1 0.5 -0.2
v 1.1 0.6 -0.2
v 1.1 0.7 -0.2
v 1.1 0.8 -0.2
v 1.1 0.9 -0.2
v 1.1 1 -0.2
v 1.2 0.1 -0.2
v 1.2 0.2 -0.2
v 1.2 0.4 -0.2
v 1.2 0.5 -0.2
v 1.2 0.6 -0.2
v 1.2 0.7 -0.2
v 1.2 0.8 -0.2
v 1.2 0.9 -0.2
v 1.3 0.2 -0.2
v 1.3 0.4 -0.2
v 0.9 0.1 0.1
v 1.2 0.1 0.1
v 0.9 0.1 -0.2
v 1.2 0.1 -0.2
v 1.2 0.2 0.1
v 1.3 0.2 0.1
v 1.2 0.2 -0.2
v 1.3 0.2 -0.2
v 0.8 0.3 0.1
v 0.9 0.3 0.1
v 0.8 0.3 -0.2
v 0.9 0.3 -0.2
v 0.5 0.4 0
v 0.8 0.4 0
v 0.5 0.4 -0.1
v 0.8 0.4 -0.1
v 0.4 0.5 0
v 0.5 0.5 0
v 0.4 0.5 -0.1
v 0.5 0.5 -0.1
v -0.4 0.6 0.1
v 0.4 0.6 0.1
v 0.5 0.6 0.1
v 0.8 0.6 0.1
v 1.1 0.6 0.1
v 1.2 0.6 0.1
v 0.4 0.6 0
v 0.5 0.6 0
v 0.7 0.6 0
v 0.8 0.6 0
v 0.4 0.6 -0.1
v 0.5 0.6 -0.1
v 0.7 0.6 -0.1
v 0.8 0.6 -0.1
v -0.4 0.6 -0.2
v 0.4 0.6 -0.2
v 0.5 0.6 -0.2
v 0.8 0.6 -0.2
v 1.1 0.6 -0.2
v 1.2 0.6 -0.2
v -0.5 0.7 0.1
v -0.4 0.7 0.1
v -0.5 0.7 -0.2
v -0.4 0.7 -0.2
v -0.5 0.9 0
v 0.2 0.9 0
v -0.5 0.9 -0.1
v 0.2 0.9 -0.1
v 1.2 0.4 0.1
v 1.3 0.4 0.1
v 1.2 0.4 -0.2
v 1.3 0.4 -0.2
v 1.1 0.5 0.1
v 1.2 0.5 0.1
v 0.5 0.5 0
v 0.7 0.5 0
v 0.5 0.5 -0.1
v 0.7 0.5 -0.1
v 1.1 0.5 -0.2
v 1.2 0.5 -0.2
v -0.5 0.8 0
v 0.2 0.8 0
v -0.5 0.8 -0.1
v 0.2 0.8 -0.1
v 1.1 0.9 0.1
v 1.2 0.9 0.1
v 1.1 0.9 -0.2
v 1.2 0.9 -0.2
v -0.5 1 0.1
v 0.5 1 0.1
v 0.7 1 0.1
v 1.1 1 0.1
v -0.5 1 -0.2
v 0.5 1 -0.2
v 0.7 1 -0.2
v 1.1 1 -0.2

# faces
f 3/4/1 2/4/1 1/4/1
f 4/4/1 2/4/1 3/4/1
f 5/4/1 3/4/1 1/4/1
f 6/4/1 3/4/1 5/4/1
f 7/4/1 2/4/1 4/4/1
f 8/4/1 2/4/1 7/4/1
f 9/3/1 6/3/1 5/3/1
f 9/3/1 7/3/1 6/3/1
f 9/3/1 8/3/1 7/3/1
f 10/3/1 8/3/1 9/3/1
f 13/6/1 12/6/1 11/6/1
f 14/6/1 12/6/1 13/6/1
f 17/4/1 16/4/1 15/4/1
f 18/4/1 16/4/1 17/4/1
f 21/6/1 20/6/1 19/6/1
f 22/6/1 20/6/1 21/6/1
f 25/6/1 24/6/1 23/6/1
f 26/6/1 24/6/1 25/6/1
f 29/6/1 28/6/1 27/6/1
f 30/6/1 28/6/1 29/6/1
f 33/6/1 32/6/1 31/6/1
f 34/6/1 32/6/1 33/6/1
f 35/6/1 32/6/1 34/6/1
f 36/6/1 32/6/1 35/6/1
f 37/1/1 34/1/1 33/1/1
f 38/1/1 34/1/1 37/1/1
f 39/1/1 36/1/1 35/1/1
f 40/1/1 36/1/1 39/1/1
f 41/6/1 38/6/1 37/6/1
f 42/6/1 38/6/1 41/6/1
f 43/6/1 40/6/1 39/6/1
f 44/6/1 40/6/1 43/6/1
f 47/6/1 46/6/1 45/6/1
f 48/6/1 46/6/1 47/6/1
f 49/6/2 50/6/2 51/6/2
f 51/6/2 50/6/2 52/6/2
f 53/6/2 54/6/2 55/6/2
f 55/6/2 54/6/2 56/6/2
f 57/3/2 58/3/2 59/3/2
f 59/3/2 58/3/2 60/3/2
f 61/6/2 62/6/2 63/6/2
f 63/6/2 62/6/2 64/6/2
f 65/6/2 66/6/2 67/6/2
f 67/6/2 66/6/2 68/6/2
f 69/6/2 70/6/2 71/6/2
f 71/6/2 70/6/2 72/6/2
f 71/5/2 72/5/2 73/5/2
f 73/5/2 72/5/2 74/5/2
f 73/3/2 74/3/2 75/3/2
f 75/3/2 74/3/2 76/3/2
f 77/6/2 78/6/2 79/6/2
f 79/6/2 78/6/2 80/6/2
f 85/4/3 82/4/3 81/4/3
f 86/6/3 85/6/3 84/6/3
f 87/4/3 82/4/3 85/4/3
f 87/6/3 85/6/3 86/6/3
f 88/5/3 87/5/3 86/5/3
f 89/4/3 82/4/3 87/4/3
f 89/5/3 87/5/3 88/5/3
f 90/4/3 82/4/3 89/4/3
f 91/3/3 83/3/3 82/3/3
f 91/4/3 82/4/3 90/4/3
f 92/3/3 83/3/3 91/3/3
f 93/3/3 91/3/3 90/3/3
f 93/6/3 92/6/3 91/6/3
f 94/6/3 92/6/3 93/6/3
f 98/6/3 89/6/3 88/6/3
f 100/6/3 96/6/3 95/6/3
f 101/1/3 97/1/3 96/1/3
f 101/6/3 96/6/3 100/6/3
f 102/6/3 98/6/3 97/6/3
f 102/1/3 97/1/3 101/1/3
f 103/6/3 89/6/3 98/6/3
f 103/6/3 98/6/3 102/6/3
f 104/4/3 90/4/3 89/4/3
f 104/6/3 89/6/3 103/6/3
f 105/3/3 93/3/3 90/3/3
f 105/4/3 90/4/3 104/4/3
f 105/3/3 94/3/3 93/3/3
f 106/6/3 100/6/3 99/6/3
f 107/1/3 101/1/3 100/1/3
f 107/6/3 100/6/3 106/6/3
f 108/2/3 102/2/3 101/2/3
f 108/1/3 101/1/3 107/1/3
f 109/1/3 103/1/3 102/1/3
f 109/2/3 102/2/3 108/2/3
f 110/6/3 104/6/3 103/6/3
f 110/1/3 103/1/3 109/1/3
f 110/6/3 105/6/3 104/6/3
f 111/6/3 105/6/3 110/6/3
f 112/3/3 94/3/3 105/3/3
f 112/6/3 105/6/3 111/6/3
f 113/2/3 108/2/3 107/2/3
f 113/1/3 107/1/3 106/1/3
f 114/1/3 109/1/3 108/1/3
f 114/2/3 108/2/3 113/2/3
f 115/6/3 111/6/3 110/6/3
f 115/1/3 109/1/3 114/1/3
f 115/6/3 110/6/3 109/6/3
f 116/6/3 111/6/3 115/6/3
f 117/4/3 112/4/3 111/4/3
f 117/6/3 111/6/3 116/6/3
f 118/3/3 94/3/3 112/3/3
f 118/4/3 112/4/3 117/4/3
f 119/3/3 94/3/3 118/3/3
f 120/3/3 94/3/3 119/3/3
f 121/6/3 106/6/3 99/6/3
f 122/1/3 114/1/3 113/1/3
f 122/6/3 106/6/3 121/6/3
f 122/1/3 113/1/3 106/1/3
f 123/6/3 115/6/3 114/6/3
f 123/1/3 114/1/3 122/1/3
f 124/6/3 115/6/3 123/6/3
f 125/6/3 117/6/3 116/6/3
f 126/5/3 118/5/3 117/5/3
f 126/6/3 117/6/3 125/6/3
f 127/3/3 119/3/3 118/3/3
f 127/5/3 118/5/3 126/5/3
f 128/3/3 119/3/3 127/3/3
f 129/6/3 123/6/3 122/6/3
f 130/6/3 123/6/3 129/6/3
f 134/6/3 132/6/3 131/6/3
f 135/6/3 132/6/3 134/6/3
f 136/6/3 134/6/3 133/6/3
f 138/6/3 136/6/3 133/6/3
f 138/6/3 137/6/3 136/6/3
f 139/6/3 137/6/3 138/6/3
f 140/6/3 137/6/3 139/6/3
f 143/4/3 142/4/3 141/4/3
f 144/4/3 142/4/3 143/4/3
f 145/4/4 146/4/4 147/4/4
f 147/4/4 146/4/4 148/4/4
f 149/6/4 150/6/4 152/6/4
f 152/6/4 150/6/4 153/6/4
f 151/6/4 152/6/4 154/6/4
f 151/6/4 154/6/4 156/6/4
f 154/6/4 155/6/4 156/6/4
f 156/6/4 155/6/4 157/6/4
f 157/6/4 155/6/4 158/6/4
f 159/4/4 160/4/4 163/4/4
f 162/6/4 163/6/4 164/6/4
f 163/4/4 160/4/4 165/4/4
f 164/6/4 163/6/4 165/6/4
f 164/5/4 165/5/4 166/5/4
f 165/4/4 160/4/4 167/4/4
f 166/5/4 165/5/4 167/5/4
f 167/4/4 160/4/4 168/4/4
f 160/3/4 161/3/4 169/3/4
f 168/4/4 160/4/4 169/4/4
f 169/3/4 161/3/4 170/3/4
f 168/3/4 169/3/4 171/3/4
f 169/6/4 170/6/4 171/6/4
f 171/6/4 170/6/4 172/6/4
f 166/6/4 167/6/4 176/6/4
f 173/6/4 174/6/4 178/6/4
f 174/1/4 175/1/4 179/1/4
f 178/6/4 174/6/4 179/6/4
f 175/6/4 176/6/4 180/6/4
f 179/1/4 175/1/4 180/1/4
f 176/6/4 167/6/4 181/6/4
f 180/6/4 176/6/4 181/6/4
f 167/4/4 168/4/4 182/4/4
f 181/6/4 167/6/4 182/6/4
f 168/3/4 171/3/4 183/3/4
f 182/4/4 168/4/4 183/4/4
f 171/3/4 172/3/4 183/3/4
f 177/6/4 178/6/4 184/6/4
f 178/1/4 179/1/4 185/1/4
f 184/6/4 178/6/4 185/6/4
f 179/2/4 180/2/4 186/2/4
f 185/1/4 179/1/4 186/1/4
f 180/1/4 181/1/4 187/1/4
f 186/2/4 180/2/4 187/2/4
f 181/6/4 182/6/4 188/6/4
f 187/1/4 181/1/4 188/1/4
f 182/6/4 183/6/4 188/6/4
f 188/6/4 183/6/4 189/6/4
f 183/3/4 172/3/4 190/3/4
f 189/6/4 183/6/4 190/6/4
f 185/2/4 186/2/4 191/2/4
f 184/1/4 185/1/4 191/1/4
f 186/1/4 187/1/4 192/1/4
f 191/2/4 186/2/4 192/2/4
f 188/6/4 189/6/4 193/6/4
f 192/1/4 187/1/4 193/1/4
f 187/6/4 188/6/4 193/6/4
f 193/6/4 189/6/4 194/6/4
f 189/4/4 190/4/4 195/4/4
f 194/6/4 189/6/4 195/6/4
f 190/3/4 172/3/4 196/3/4
f 195/4/4 190/4/4 196/4/4
f 196/3/4 172/3/4 197/3/4
f 197/3/4 172/3/4 198/3/4
f 177/6/4 184/6/4 199/6/4
f 191/1/4 192/1/4 200/1/4
f 199/6/4 184/6/4 200/6/4
f 184/1/4 191/1/4 200/1/4
f 192/6/4 193/6/4 201/6/4
f 200/1/4 192/1/4 201/1/4
f 201/6/4 193/6/4 202/6/4
f 194/6/4 195/6/4 203/6/4
f 195/5/4 196/5/4 204/5/4
f 203/6/4 195/6/4 204/6/4
f 196/3/4 197/3/4 205/3/4
f 204/5/4 196/5/4 205/5/4
f 205/3/4 197/3/4 206/3/4
f 200/6/4 201/6/4 207/6/4
f 207/6/4 201/6/4 208/6/4
f 211/6/5 210/6/5 209/6/5
f 212/6/5 210/6/5 211/6/5
f 215/6/5 214/6/5 213/6/5
f 216/6/5 214/6/5 215/6/5
f 219/6/5 218/6/5 217/6/5
f 220/6/5 218/6/5 219/6/5
f 223/6/5 222/6/5 221/6/5
f 224/6/5 222/6/5 223/6/5
f 227/6/5 226/6/5 225/6/5
f 228/6/5 226/6/5 227/6/5
f 235/6/5 230/6/5 229/6/5
f 235/5/5 231/5/5 230/5/5
f 236/6/5 232/6/5 231/6/5
f 236/5/5 231/5/5 235/5/5
f 237/6/5 232/6/5 236/6/5
f 238/6/5 232/6/5 237/6/5
f 239/6/5 235/6/5 229/6/5
f 240/6/5 237/6/5 236/6/5
f 241/6/5 237/6/5 240/6/5
f 243/6/5 239/6/5 229/6/5
f 244/5/5 240/5/5 239/5/5
f 244/6/5 239/6/5 243/6/5
f 245/6/5 242/6/5 241/6/5
f 245/5/5 240/5/5 244/5/5
f 245/6/5 241/6/5 240/6/5
f 246/6/5 242/6/5 245/6/5
f 247/6/5 234/6/5 233/6/5
f 248/6/5 234/6/5 247/6/5
f 251/4/5 250/4/5 249/4/5
f 252/4/5 250/4/5 251/4/5
f 255/3/5 254/3/5 253/3/5
f 256/3/5 254/3/5 255/3/5
f 257/6/6 258/6/6 259/6/6
f 259/6/6 258/6/6 260/6/6
f 263/6/6 264/6/6 265/6/6
f 265/6/6 264/6/6 266/6/6
f 261/6/6 262/6/6 267/6/6
f 267/6/6 262/6/6 268/6/6
f 269/4/6 270/4/6 271/4/6
f 271/4/6 270/4/6 272/4/6
f 273/3/6 274/3/6 275/3/6
f 275/3/6 274/3/6 276/3/6
f 277/3/6 278/3/6 281/3/6
f 278/6/6 279/6/6 282/6/6
f 281/3/6 278/3/6 282/3/6
f 279/3/6 280/3/6 283/3/6
f 282/6/6 279/6/6 283/6/6
f 283/3/6 280/3/6 284/3/6
